<svg width="254" height="44" viewBox="0 0 254 44" fill="none" xmlns="http://www.w3.org/2000/svg">
<path fill-rule="evenodd" clip-rule="evenodd" d="M114.725 15.8195C114.725 6.18655 120.123 0 127.307 0C133.12 0 136.691 3.4879 138.144 9.30108L136.151 9.75743C134.656 4.52608 132.165 1.86791 127.266 1.86791C121.286 1.86791 116.802 7.05777 116.802 15.6951C116.802 24.3324 120.788 30.0201 127.266 30.0201C132.83 30.0201 136.484 25.9099 136.318 19.0585H128.387V17.1481H138.352V31.3071H136.317V26.4907H136.234C134.739 29.3967 132.082 31.889 127.182 31.889C119.417 31.889 114.725 24.9961 114.725 15.8205V15.8195ZM77.7306 0.580811H75.5713L86.4499 31.4316H88.3603L99.2388 0.580811H97.1625L87.488 28.5245H87.4051L77.7306 0.580811ZM107.543 0.580811H105.467V31.3072H107.543V0.580811ZM148.399 0.580811H146.323V31.3072H148.399V0.580811ZM157.078 0.580811H159.153V29.3967H174.4L184.606 0.456352H187.056L197.934 31.3071H195.733L192.163 21.0094H179.415L175.844 31.3071L174.517 31.3072H157.078V0.580811ZM185.81 2.78162L191.499 19.1415H180.08L185.727 2.78162H185.81ZM203.707 0.580811H206.073L223.927 27.2374H224.01V0.580811H226.003V31.3072H224.219L205.783 3.73682H205.7V31.3072H203.707V0.580811ZM231.65 2.49122H241.739H241.74V31.3072H243.816V2.49122H253.906V0.580811H231.65V2.49122Z" fill="#231F20"/>
<path fill-rule="evenodd" clip-rule="evenodd" d="M143.264 39.9819C142.327 39.9819 141.674 40.8086 141.674 41.9904C141.674 43.1723 142.333 43.999 143.264 43.999C144.195 43.999 144.849 43.1723 144.849 41.9904C144.849 40.8086 144.201 39.9819 143.264 39.9819ZM143.263 40.2176C144.022 40.2176 144.587 40.8814 144.587 41.9904C144.587 43.0994 144.027 43.7632 143.263 43.7632C142.499 43.7632 141.935 43.0994 141.935 41.9904C141.935 40.8814 142.504 40.2176 143.263 40.2176ZM121.911 39.9829C121.006 39.9829 120.326 40.762 120.326 41.9753L120.327 41.9742C120.327 43.1308 120.918 43.999 121.897 43.999C122.514 43.999 122.849 43.6853 123.037 43.319H123.047V43.9261H123.303V42.1422H122.047V42.383H123.046C123.067 43.2462 122.607 43.7642 121.906 43.7642C121.089 43.7642 120.587 43.0478 120.587 41.9601C120.587 40.8723 121.153 40.2187 121.906 40.2187C122.523 40.2187 122.837 40.5536 123.025 41.2123L123.276 41.1546C123.093 40.422 122.643 39.9829 121.911 39.9829ZM95.4161 40.0396H95.7248L97.0948 43.9261H96.8176L96.3673 42.6289H94.7615L94.3112 43.9261H94.0441L95.4141 40.0396H95.4161ZM96.2843 42.3932L95.5679 40.332H95.5578L94.8465 42.3932H96.2843ZM86.5127 40.0557H86.7849L88.0032 43.576H88.0133L89.2316 40.0557H89.4927L88.1226 43.9423H87.8818L86.5117 40.0557H86.5127ZM90.2789 40.0557H90.541V43.9261H90.2789V40.0557ZM91.31 40.2966H92.5809H92.5819V43.9271H92.843V40.2966H94.1139V40.0557H91.31V40.2966ZM98.0834 40.0557H97.8224V40.0568V43.9271H100.019V43.6863H98.0834V40.0557ZM101.729 40.0557H101.991V43.9261H101.729V40.0557ZM103.383 40.0557H103.085V43.9261H103.336V40.4534H103.346L105.668 43.9261H105.893V40.0557H105.642V43.4141H105.632L103.383 40.0557ZM107.876 40.2966H106.605V40.0557H109.409V40.2966H108.138V43.9271H107.877V40.2966H107.876ZM112.359 40.0557H110.121V40.0568V43.9271H112.474V43.6863H110.382V41.9914H111.867V41.7506H110.382V40.2966H112.359V40.0557ZM113.243 40.0557H113.504V43.6863H115.44V43.9271H113.243V40.0568V40.0557ZM116.434 40.0557H116.173V40.0568V43.9271H118.369V43.6863H116.434V40.0557ZM119.16 40.0557H119.422V43.9261H119.16V40.0557ZM124.249 40.0557H126.488V40.2966H124.51V41.7506H125.996V41.9914H124.51V43.6863H126.603V43.9271H124.249V40.0568V40.0557ZM127.67 40.0557H127.373V43.9261H127.624V40.4534H127.634L129.956 43.9261H130.181V40.0557H129.93V43.4141H129.92L127.67 40.0557ZM131.029 41.9702C131.029 40.8511 131.641 39.9829 132.603 39.9829C133.346 39.9829 133.785 40.4332 133.968 41.1546L133.717 41.2123C133.534 40.5586 133.226 40.2187 132.598 40.2187C131.814 40.2187 131.291 40.9249 131.291 41.9601C131.291 43.0954 131.819 43.7642 132.609 43.7642C133.216 43.7642 133.608 43.3979 133.786 42.723L134.032 42.7807C133.844 43.5396 133.337 44 132.604 44C131.637 44 131.03 43.1682 131.03 41.9702H131.029ZM137.075 40.0557H134.836V40.0568V43.9271H137.19V43.6863H135.098V41.9914H136.583V41.7506H135.098V40.2966H137.075V40.0557ZM139.88 40.2966H138.609V40.0557H141.413V40.2966H140.142V43.9271H139.881V40.2966H139.88ZM146.884 40.0557H147.146V43.9261H146.884V40.0557ZM148.537 40.0557H148.24V43.9261H148.491V40.4534H148.501L150.823 43.9261H151.048V40.0557H150.797V43.4141H150.786L148.537 40.0557ZM151.775 40.0557H152.047L153.266 43.576H153.276L154.494 40.0557H154.756L153.386 43.9423H153.145L151.775 40.0557ZM157.722 40.0557H155.484V40.0568V43.9271H157.837V43.6863H155.745V41.9914H157.23V41.7506H155.745V40.2966H157.722V40.0557ZM158.314 42.9588L158.57 42.8961C158.722 43.4718 159.129 43.7642 159.694 43.7642C160.321 43.7642 160.719 43.4556 160.719 42.9902C160.719 42.5611 160.541 42.3365 159.646 42.0481C158.783 41.7709 158.428 41.5351 158.428 40.9391C158.428 40.421 158.91 39.9819 159.59 39.9819C160.27 39.9819 160.709 40.3532 160.871 40.8915L160.62 40.9644C160.437 40.42 160.092 40.2166 159.584 40.2166C159.029 40.2166 158.689 40.5414 158.689 40.9229C158.689 41.3884 158.94 41.5452 159.824 41.8326C160.656 42.1048 160.98 42.382 160.98 42.973C160.98 43.6165 160.399 43.998 159.683 43.998C158.966 43.998 158.475 43.6003 158.313 42.9568L158.314 42.9588ZM161.259 40.2966H162.53H162.531V43.9271H162.792V40.2966H164.063V40.0557H161.259V40.2966ZM164.831 40.0557H165.092V43.9261H164.831V40.0557ZM167.582 39.9829C166.678 39.9829 165.998 40.762 165.998 41.9753L165.999 41.9742C165.999 43.1308 166.59 43.999 167.568 43.999C168.186 43.999 168.52 43.6853 168.709 43.319H168.719V43.9261H168.975V42.1422H167.719V42.383H168.718C168.739 43.2462 168.279 43.7642 167.577 43.7642C166.761 43.7642 166.259 43.0478 166.259 41.9601C166.259 40.8723 166.825 40.2187 167.577 40.2187C168.195 40.2187 168.508 40.5536 168.697 41.2123L168.947 41.1546C168.764 40.422 168.315 39.9829 167.582 39.9829ZM170.931 40.0396H171.239L172.609 43.9261H172.332L171.882 42.6289H170.276L169.826 43.9261H169.559L170.929 40.0396H170.931ZM171.799 42.3932L171.083 40.332H171.072L170.361 42.3932H171.799ZM172.543 40.2966H173.814H173.815V43.9271H174.076V40.2966H175.347V40.0557H172.543V40.2966ZM176.057 40.0557H178.296V40.2966H176.319V41.7506H177.804V41.9914H176.319V43.6863H178.411V43.9271H176.058V40.0568L176.057 40.0557ZM180.628 40.0557H180.367V43.9261H180.628V40.0557ZM181.722 40.0557H181.983V43.6863H183.919V43.9271H181.722V40.0568V40.0557ZM184.913 40.0557H184.652V40.0568V43.9271H186.848V43.6863H184.913V40.0557ZM187.581 40.0557H189.819V40.2966H187.842V41.7506H189.327V41.9914H187.842V43.6863H189.935V43.9271H187.581V40.0568V40.0557ZM191.892 39.9829C190.987 39.9829 190.307 40.762 190.307 41.9753L190.308 41.9742C190.308 43.1308 190.899 43.999 191.877 43.999C192.495 43.999 192.83 43.6853 193.018 43.319H193.028V43.9261H193.284V42.1422H192.028V42.383H193.027C193.048 43.2462 192.588 43.7642 191.886 43.7642C191.07 43.7642 190.568 43.0478 190.568 41.9601C190.568 40.8723 191.133 40.2187 191.886 40.2187C192.504 40.2187 192.817 40.5536 193.006 41.2123L193.257 41.1546C193.073 40.422 192.624 39.9829 191.892 39.9829ZM195.24 40.0396H195.548L196.918 43.9261H196.641L196.191 42.6289H194.585L194.135 43.9261H193.868L195.238 40.0396H195.24ZM196.108 42.3932L195.392 40.332H195.381L194.67 42.3932H196.108ZM197.907 40.0557H197.646V40.0568V43.9271H199.843V43.6863H197.907V40.0557ZM201.496 40.0557H202.427C203.703 40.0557 204.32 40.7468 204.32 41.9914C204.32 43.236 203.688 43.9271 202.427 43.9271H201.496V40.0568V40.0557ZM202.485 43.6863C203.473 43.6863 204.059 43.1632 204.059 41.9914C204.059 40.8197 203.468 40.2966 202.475 40.2966H201.758V43.6863H202.485ZM205.488 40.0557H205.226V43.9261H205.488V40.0557ZM206.393 42.9588L206.393 42.9587C206.555 43.6011 207.047 43.998 207.763 43.998C208.479 43.998 209.06 43.6165 209.06 42.973C209.06 42.382 208.736 42.1048 207.904 41.8326C207.02 41.5452 206.769 41.3884 206.769 40.9229C206.769 40.5414 207.109 40.2166 207.663 40.2166C208.171 40.2166 208.517 40.42 208.7 40.9644L208.951 40.8915C208.788 40.3532 208.349 39.9819 207.669 39.9819C206.989 39.9819 206.507 40.421 206.507 40.9391C206.507 41.5351 206.862 41.7709 207.725 42.0481C208.62 42.3365 208.798 42.5611 208.798 42.9902C208.798 43.4556 208.4 43.7642 207.773 43.7642C207.208 43.7642 206.8 43.4718 206.649 42.8961L206.393 42.9587L206.393 42.9568V42.9588ZM210.242 40.0557H209.981V43.9261H210.242V40.0557ZM211.337 40.0557H211.634L213.883 43.4141H213.894V40.0557H214.145V43.9261H213.92L211.598 40.4534H211.588V43.9261H211.337V40.0557ZM217.382 40.0557H215.181V40.0568V43.9271H215.442V41.9914H216.891V41.7506H215.442V40.2966H217.382V40.0557ZM217.712 41.9904C217.712 40.8086 218.366 39.9819 219.303 39.9819C220.24 39.9819 220.888 40.8086 220.888 41.9904C220.888 43.1723 220.234 43.999 219.303 43.999C218.372 43.999 217.712 43.1723 217.712 41.9904ZM220.625 41.9904C220.625 40.8814 220.061 40.2176 219.302 40.2176C218.543 40.2176 217.973 40.8814 217.973 41.9904C217.973 43.0994 218.538 43.7632 219.302 43.7632C220.066 43.7632 220.625 43.0994 220.625 41.9904ZM222.995 40.0557H221.735L221.734 40.0568V43.9271H221.995V42.1119H223.062L224.046 43.9271H224.349L223.35 42.0805C223.916 41.9864 224.298 41.699 224.298 41.0605C224.298 40.422 223.837 40.0557 222.995 40.0557ZM224.036 41.0706C224.036 41.6717 223.644 41.8761 222.974 41.8761H221.996V40.2966H222.968C223.648 40.2966 224.036 40.506 224.036 41.0706ZM225.203 40.0557H225.538L226.934 43.571H226.945L228.346 40.0557H228.681V43.9261H228.414V40.5414H228.404C228.351 40.6821 228.252 40.9391 228.158 41.1799L227.054 43.9261H226.813L225.709 41.1799C225.682 41.1101 225.657 41.0474 225.633 40.9876L225.633 40.9869L225.632 40.9845C225.574 40.8393 225.522 40.7112 225.463 40.5414H225.453V43.9261H225.202V40.0557H225.203ZM231.088 40.0396H230.78H230.779L229.409 43.9261H229.676L230.126 42.6289H231.732L232.181 43.9261H232.458L231.088 40.0396ZM230.931 40.332L231.648 42.3932H230.21L230.921 40.332H230.931ZM233.661 40.2966H232.39V40.0557H235.194V40.2966H233.923V43.9271H233.661V40.2966ZM236.225 40.0557H235.963V43.9261H236.225V40.0557ZM237.13 41.9904C237.13 40.8086 237.784 39.9819 238.721 39.9819C239.658 39.9819 240.305 40.8086 240.305 41.9904C240.305 43.1723 239.652 43.999 238.721 43.999C237.79 43.999 237.13 43.1723 237.13 41.9904ZM240.043 41.9904C240.043 40.8814 239.479 40.2176 238.72 40.2176C237.961 40.2176 237.391 40.8814 237.391 41.9904C237.391 43.0994 237.956 43.7632 238.72 43.7632C239.484 43.7632 240.043 43.0994 240.043 41.9904ZM241.451 40.0557H241.153V43.9261H241.404V40.4534H241.414L243.737 43.9261H243.961V40.0557H243.71V43.4141H243.7L241.451 40.0557Z" fill="#231F20"/>
<path fill-rule="evenodd" clip-rule="evenodd" d="M52.2325 0.580811L59.3571 12.9145L66.4695 0.580811H52.2325ZM0 0.61319L7.12455 12.9468L14.237 0.61319H0ZM43.5254 13.8342H57.7624L50.649 1.50161L43.5244 13.8352L43.5254 13.8342ZM43.5254 15.6637L50.6389 27.9973L57.7634 15.6637H43.5264H43.5254ZM34.8183 28.9171H49.0553L41.9419 16.5835L34.8173 28.9171H34.8183ZM33.2246 31.6765L26.1112 43.999H40.3482L33.2236 31.6765H33.2246ZM24.5175 30.7567H17.4041L24.5175 43.0792L31.6309 30.7567H24.5175ZM24.5175 16.5835L17.4041 28.9171H31.6411L24.5165 16.5835H24.5175ZM22.9238 15.6637H8.68586L12.2476 21.8361L15.8094 27.9973L22.9228 15.6637H22.9238Z" fill="#134348"/>
</svg>
